<svg id="_1" data-name="1" xmlns="http://www.w3.org/2000/svg" viewBox="0 0 230.86 92.89"><circle cx="11.46" cy="7.38" r="7.38" transform="translate(1.65 16.84) rotate(-76.72)" style="fill:#4397d3"/><path d="M107.67,52.91a22.29,22.29,0,0,1-1.38,8,17.08,17.08,0,0,1-3.9,6.12A17.3,17.3,0,0,1,96.32,71a21.65,21.65,0,0,1-7.86,1.37H78.69a5.62,5.62,0,0,1-1.46-.2,3.87,3.87,0,0,1-1.46-.7,3.67,3.67,0,0,1-1.1-1.32,4.3,4.3,0,0,1-.42-2V36.67a4.16,4.16,0,0,1,1.21-3.14,4.24,4.24,0,0,1,3.11-1.18H87.9a22.55,22.55,0,0,1,8.4,1.46A16.92,16.92,0,0,1,102.5,38a18,18,0,0,1,3.85,6.49,25.63,25.63,0,0,1,1.32,8.46Zm-8.76-.4a18.22,18.22,0,0,0-.65-5,10.73,10.73,0,0,0-2-3.93A8.93,8.93,0,0,0,92.81,41a12.36,12.36,0,0,0-5-.93H82.67V64.59h5.68A11,11,0,0,0,93,63.66a9.08,9.08,0,0,0,3.31-2.58,10.84,10.84,0,0,0,1.94-3.85,17.38,17.38,0,0,0,.62-4.72Zm35.61,16a4.06,4.06,0,0,1-1,2.66,3.65,3.65,0,0,1-3,1.21H116A4.37,4.37,0,0,1,113,71.19a4,4,0,0,1-1.23-3.06V37.23a5.58,5.58,0,0,1,1.06-3.51,4,4,0,0,1,3.32-1.37H130a3.64,3.64,0,0,1,3,1.2,4.13,4.13,0,0,1,1,2.67,4,4,0,0,1-1,2.67,3.63,3.63,0,0,1-3,1.21h-9.89v8.2h9.21a3.78,3.78,0,0,1,3.09,1.21,4,4,0,0,1,0,5.33,3.83,3.83,0,0,1-3.07,1.21h-9.21v8.54h10.39a3.65,3.65,0,0,1,3,1.21,4.14,4.14,0,0,1,1,2.67Zm37,.16a4,4,0,0,1-6.06,3.85,4.75,4.75,0,0,1-1.69-1.32L145.92,47.34h-.11V68.63A4,4,0,0,1,141.6,73a4,4,0,0,1-4.21-4.39V36.05a4,4,0,0,1,4.21-4.38,4.42,4.42,0,0,1,1.88.54,4.23,4.23,0,0,1,1.66,1.32L163,57.62h.11V36.05a4.22,4.22,0,1,1,8.42,0V68.63Zm29.83-32.41a4.34,4.34,0,0,1-.9,2.67,3.39,3.39,0,0,1-2.92,1.21h-6.12V68.63A4,4,0,0,1,187.16,73a4.26,4.26,0,0,1-3-1.13,4.21,4.21,0,0,1-1.21-3.26V40.1h-6.12a3.39,3.39,0,0,1-2.92-1.21,4.34,4.34,0,0,1-.9-2.67,4.1,4.1,0,0,1,1-2.67,3.48,3.48,0,0,1,2.81-1.2h20.67a3.47,3.47,0,0,1,2.81,1.2,4.1,4.1,0,0,1,1,2.67Zm29.55,33.09a5.73,5.73,0,0,0-.09-.84,4.84,4.84,0,0,0-.36-1.24l-11.12-30.9A8,8,0,0,0,217,33a5.89,5.89,0,0,0-7.47,0,7.85,7.85,0,0,0-2.3,3.31l-11.41,30.9a4.67,4.67,0,0,0-.25.7,4.25,4.25,0,0,0-.14,1.15,3.64,3.64,0,0,0,1.23,2.81A4.22,4.22,0,0,0,199.63,73a3.81,3.81,0,0,0,2.66-.85A5.05,5.05,0,0,0,203.67,70l1.8-5.56h15.61l1.8,5.61a4.8,4.8,0,0,0,1.38,2.11,4.47,4.47,0,0,0,5.45-.22,3.48,3.48,0,0,0,1.15-2.67ZM213.33,40.44l5.23,16.29H207.88l5.34-16.29Z" style="fill:#232424;fill-rule:evenodd"/><path d="M118.78,78.9l-1.18.65a2,2,0,0,0-.66-.48,1.94,1.94,0,0,0-.76-.14,1.77,1.77,0,0,0-1.28.47,1.61,1.61,0,0,0-.49,1.22,1.55,1.55,0,0,0,.47,1.17,1.72,1.72,0,0,0,1.24.45,1.78,1.78,0,0,0,1.48-.65l1.12.77a3.46,3.46,0,0,1-4.91.3A2.89,2.89,0,0,1,113,80.6a2.93,2.93,0,0,1,.41-1.51A2.85,2.85,0,0,1,114.53,78a3.32,3.32,0,0,1,1.64-.4,3.36,3.36,0,0,1,1.51.34,2.81,2.81,0,0,1,1.1,1Zm.78-1.15h5.26V79.1h-1.88v4.3h-1.41V79.1h-2V77.75Zm8.85-.14a3.1,3.1,0,0,1,1.51.4,3,3,0,0,1,1.1,1.08,3,3,0,0,1,.39,1.48,2.9,2.9,0,0,1-.4,1.49,2.76,2.76,0,0,1-1.08,1.09,3,3,0,0,1-1.51.39,3,3,0,0,1,0-5.93Zm0,1.33a1.48,1.48,0,0,0-1.1.46,1.65,1.65,0,0,0-.44,1.17,1.69,1.69,0,0,0,.43,1.19,1.56,1.56,0,0,0,2.21,0,1.79,1.79,0,0,0,0-2.36,1.45,1.45,0,0,0-1.11-.46Zm7.6,2.37,1.74-3.56h.94l1.41,5.65h-1.39L138,80.09l-1.68,3.31h-.59l-1.64-3.32-.76,3.32h-1.39l1.42-5.65h.93L136,81.31Zm9.05-3.56h1.41V83.4h-1.41v-.6a3,3,0,0,1-.84.57,2.4,2.4,0,0,1-.9.17,2.51,2.51,0,0,1-1.9-.85,2.94,2.94,0,0,1-.8-2.1,3,3,0,0,1,.78-2.14,2.45,2.45,0,0,1,1.88-.84,2.52,2.52,0,0,1,.95.19,2.8,2.8,0,0,1,.83.57v-.62Zm-1.49,1.16a1.45,1.45,0,0,0-1.1.47,1.64,1.64,0,0,0-.43,1.19,1.68,1.68,0,0,0,.44,1.2,1.53,1.53,0,0,0,2.2,0,1.72,1.72,0,0,0,.44-1.22,1.65,1.65,0,0,0-.44-1.19,1.46,1.46,0,0,0-1.11-.46Zm3.83-1.16h5.27V79.1H150.8v4.3h-1.41V79.1h-2V77.75Zm8.85-.14a3.07,3.07,0,0,1,1.51.4,3,3,0,0,1,1.1,1.08,3,3,0,0,1,.39,1.48,3,3,0,0,1-.39,1.49,2.85,2.85,0,0,1-1.09,1.09,3,3,0,0,1-1.51.39,3,3,0,0,1,0-5.93Zm0,1.33a1.48,1.48,0,0,0-1.1.46,1.8,1.8,0,0,0,0,2.36,1.43,1.43,0,0,0,1.1.46,1.48,1.48,0,0,0,1.11-.46,1.66,1.66,0,0,0,.44-1.19,1.62,1.62,0,0,0-.44-1.17,1.45,1.45,0,0,0-1.11-.46Zm9.19,4.46h-1.43l-1.43-3.57-1.44,3.57h-1.44l2.41-5.65h.91l2.42,5.65Zm3.4-5.79a3.07,3.07,0,0,1,1.51.4,2.9,2.9,0,0,1,1.49,2.56,3,3,0,0,1-.39,1.49,2.85,2.85,0,0,1-1.09,1.09,3,3,0,0,1-1.51.39,3,3,0,0,1,0-5.93Zm0,1.33a1.48,1.48,0,0,0-1.1.46,1.8,1.8,0,0,0,0,2.36,1.43,1.43,0,0,0,1.1.46,1.48,1.48,0,0,0,1.11-.46,1.66,1.66,0,0,0,.44-1.19A1.62,1.62,0,0,0,170,79.4a1.45,1.45,0,0,0-1.11-.46ZM173,77.75h3.29V79.1h-1.88v4.3H173V77.75Zm5,5.65h-.75V77.75h1.38v3.32l2.9-3.32h.68V83.4h-1.39V80.15L178,83.4Zm6.6-2.32a1.47,1.47,0,0,1-.76-.57,1.61,1.61,0,0,1-.29-.94,1.77,1.77,0,0,1,.36-1.1,1.53,1.53,0,0,1,.85-.59,6.6,6.6,0,0,1,1.56-.13h1.43V83.4h-1.41v-2h-.28l-1.35,2h-1.68l1.57-2.32Zm1.74-.79V78.93h-.5c-.54,0-.81.23-.81.68s.3.68.91.68Zm11.35-1.39-1.18.65a2,2,0,0,0-.66-.48,1.94,1.94,0,0,0-.76-.14,1.77,1.77,0,0,0-1.28.47,1.61,1.61,0,0,0-.49,1.22,1.55,1.55,0,0,0,.47,1.17,1.72,1.72,0,0,0,1.24.45,1.78,1.78,0,0,0,1.48-.65l1.12.77a3.46,3.46,0,0,1-4.91.3,2.89,2.89,0,0,1-.84-2.06,2.93,2.93,0,0,1,.41-1.51A2.85,2.85,0,0,1,193.48,78a3.32,3.32,0,0,1,1.64-.4,3.36,3.36,0,0,1,1.51.34,2.81,2.81,0,0,1,1.1,1Zm3.62-1.15h1.46l1.46,3.54,1.62-3.54h1.45l-3.53,7.72h-1.45L203.51,83l-2.16-5.23Zm10.27,3.56,1.75-3.56h.93l1.41,5.65h-1.39l-.75-3.31-1.69,3.31h-.58l-1.65-3.32-.76,3.32h-1.38l1.41-5.65h.94l1.76,3.56Zm7.53-3.7a3.06,3.06,0,0,1,1.5.4,2.93,2.93,0,0,1,1.1,1.08,2.86,2.86,0,0,1,.4,1.48,2.9,2.9,0,0,1-.4,1.49,2.83,2.83,0,0,1-1.08,1.09,3,3,0,0,1-1.52.39,2.86,2.86,0,0,1-2.08-.86,2.89,2.89,0,0,1-.86-2.1,3,3,0,0,1,2.94-3Zm0,1.33a1.48,1.48,0,0,0-1.1.46,1.61,1.61,0,0,0-.44,1.17,1.64,1.64,0,0,0,.43,1.19,1.56,1.56,0,0,0,2.21,0,1.82,1.82,0,0,0,0-2.36,1.45,1.45,0,0,0-1.11-.46Zm7.59,2.37,1.75-3.56h.94l1.4,5.65h-1.38l-.76-3.31L227,83.4h-.58l-1.64-3.32L224,83.4h-1.38l1.41-5.65H225Z" style="fill:#4397d3;fill-rule:evenodd"/><path d="M64,74.14,69.9,80a7.57,7.57,0,0,1,0,10.69h0a7.58,7.58,0,0,1-10.69,0l-5.18-5.16a12.84,12.84,0,0,1-4.56.58H14A14,14,0,0,1,0,72.17V33.29A14,14,0,0,1,14,19.34h4.53V33.4h0c-.25.09-.49.18-.73.29h0a7.87,7.87,0,0,0-1,.6,8.65,8.65,0,0,0-2,1.8,10.24,10.24,0,0,0-1.27,2h0a15.13,15.13,0,0,0-1,5.51c0,.54,0,1.11.07,1.66a23,23,0,0,0,1,5h0l.21.67,0,.08,0,.08,0,.06v0l0,.08,0,.08v.08c.5,1.56,1.15,3.58,2,6.27l0,.14v0l0,.1,0,.14v0l0,.13,0,.13v0q1.41,4.31,3.09,9.33c.64,1.86,1.08,3.06,1.47,3.94h0l0,0c.1.22.2.43.3.62h0a2.15,2.15,0,0,0,.14.26,7.66,7.66,0,0,0,.68,1l0,0,0,0h0l0,0h0l0,0h0l0,0h0l0,0v0h0l0,0h0l0,0h0l0,0h0l0,0v0h0v0h0l0,0h0l0,0h0a2.68,2.68,0,0,0,.54.4l0,0h.05l0,0h.11a2,2,0,0,0,1,.18h0A2.8,2.8,0,0,0,25.17,74a6.25,6.25,0,0,0,1.09-1.59c.42-.81.93-2,1.39-3s.87-2.1,1.29-3a12.91,12.91,0,0,1,1.26-2.23,3.61,3.61,0,0,1,1.2-1,2.77,2.77,0,0,1,1.21-.35A3,3,0,0,1,33.9,63a2.55,2.55,0,0,1,1,.82,6.18,6.18,0,0,1,1,1.92c.35,1,.73,2.36,1.15,3.76a24.81,24.81,0,0,0,1.34,3.69,2.61,2.61,0,0,0,1.41,1.44,2.45,2.45,0,0,0,1.73,0,4.3,4.3,0,0,0,1.53-1.23,7.15,7.15,0,0,0,1.1-1.74,21.43,21.43,0,0,0,1.33-3.78c.53-1.9,1.16-4.6,1.83-6.78a56.82,56.82,0,0,1,2-5.38c.64-1.54,1.19-3,1.68-4.34a27.24,27.24,0,0,0,1.19-4.31,19.52,19.52,0,0,0,.26-4.82,11.81,11.81,0,0,0-1-4.07,10.42,10.42,0,0,0-2.07-2.88,7.61,7.61,0,0,0-2.72-1.8,8.58,8.58,0,0,0-3.49-.45,7.17,7.17,0,0,0-3.14,1,21.28,21.28,0,0,0-3,2.33,21.34,21.34,0,0,1-3.55,2.69,13.09,13.09,0,0,1-4.21,1.47,13.37,13.37,0,0,1-3.46.11,12.07,12.07,0,0,1-2-.29c-.27-.08,0-.14.9-.31s2.59-.44,3.81-.79a8.34,8.34,0,0,0,2.67-1.24,6.07,6.07,0,0,0,1.45-1.39,3.49,3.49,0,0,0,.52-1.11c.07-.27.07-.43-1.12-.83a49.12,49.12,0,0,0-5.47-1.42,22.75,22.75,0,0,0-3.8-.45V19.34H49.76A14.47,14.47,0,0,1,64.18,33.77v38.4a14.16,14.16,0,0,1-.14,2ZM47.94,40.51a4.34,4.34,0,0,0-1,.85,3.38,3.38,0,0,0-.65,1.93c-.17,1.2-.33,3.2-.51,4.92s-.35,3.13-.44,4.13a4.6,4.6,0,0,0,0,1.87c.13.28.39.26.65.08A4.17,4.17,0,0,0,47,53.07a21.83,21.83,0,0,0,1.5-3,20.47,20.47,0,0,0,1.1-4.13,15.58,15.58,0,0,0,.13-3.44,3.7,3.7,0,0,0-.41-1.67,1,1,0,0,0-.68-.44.82.82,0,0,0-.66.15ZM44.79,36a5,5,0,0,0-1.27,1.29A3.35,3.35,0,0,0,43,38.94a1.1,1.1,0,0,0,.52,1,1.83,1.83,0,0,0,1.4.15,5,5,0,0,0,1.73-.87A5.23,5.23,0,0,0,47.89,38a1,1,0,0,0,.17-1,2,2,0,0,0-1-.85,4.05,4.05,0,0,0-1.33-.37A1.22,1.22,0,0,0,44.79,36Z" style="fill:#4397d3;fill-rule:evenodd"/></svg>