<?xml version="1.0" encoding="UTF-8"?>
<!DOCTYPE svg PUBLIC "-//W3C//DTD SVG 1.1//EN" "http://www.w3.org/Graphics/SVG/1.1/DTD/svg11.dtd">
<!-- Creator: CorelDRAW 2020 (64-Bit) -->
<svg xmlns="http://www.w3.org/2000/svg" xml:space="preserve" width="2393px" height="622px" version="1.1" style="shape-rendering:geometricPrecision; text-rendering:geometricPrecision; image-rendering:optimizeQuality; fill-rule:evenodd; clip-rule:evenodd"
viewBox="0 0 2405.29 625.54"
 xmlns:xlink="http://www.w3.org/1999/xlink"
 xmlns:xodm="http://www.corel.com/coreldraw/odm/2003">
 <defs>
  <style type="text/css">
   <![CDATA[
    .fil3 {fill:none}
    .fil2 {fill:#005C99}
    .fil1 {fill:#0075C0}
    .fil0 {fill:#00405E;fill-rule:nonzero}
   ]]>
  </style>
 </defs>
 <g id="Слой_x0020_1">
  <metadata id="CorelCorpID_0Corel-Layer"/>
  <path class="fil0" d="M830.22 484.7l-34.49 0 0 -33.04 -80.66 0 0 33.04 -34.5 0 0 -73.13 10.2 0c5.39,-15.75 9.84,-36.44 13.28,-62.11 3.44,-25.68 5.18,-53.74 5.18,-84.15l0 -5.83 110.79 0 0 151.85 10.2 0 0 73.37zm-60.25 -73.37l0 -113.95 -14.82 0 0 1.42c0,36.81 -3.97,74.3 -11.9,112.53l26.72 0zm221.84 -39.2c0,19.32 -0.45,32.96 -1.38,40.98 -0.89,8.06 -3.72,15.39 -8.5,22.03 -4.78,6.64 -11.26,11.74 -19.4,15.3 -8.14,3.57 -17.61,5.35 -28.42,5.35 -10.29,0 -19.48,-1.7 -27.66,-5.06 -8.18,-3.36 -14.78,-8.38 -19.72,-15.11 -4.98,-6.72 -7.94,-14.05 -8.91,-21.94 -0.93,-7.94 -1.41,-21.79 -1.41,-41.55l0 -32.88c0,-19.31 0.44,-32.96 1.37,-40.98 0.89,-8.05 3.73,-15.38 8.51,-22.02 4.77,-6.64 11.25,-11.75 19.39,-15.31 8.14,-3.56 17.62,-5.34 28.43,-5.34 10.28,0 19.47,1.7 27.65,5.06 8.18,3.36 14.78,8.38 19.72,15.1 4.98,6.72 7.94,14.05 8.91,21.95 0.93,7.93 1.42,21.78 1.42,41.54l0 32.88zm-50.05 -63.13c0,-8.9 -0.49,-14.61 -1.46,-17.12 -0.97,-2.47 -2.95,-3.73 -5.95,-3.73 -2.55,0 -4.49,1.01 -5.87,3.04 -1.34,1.98 -2.03,7.93 -2.03,17.81l0 89.69c0,11.14 0.45,18.02 1.34,20.62 0.89,2.63 2.96,3.92 6.2,3.92 3.32,0 5.46,-1.5 6.39,-4.49 0.94,-3 1.38,-10.16 1.38,-21.46l0 -88.28zm255 -49.52l0 192.18 -43.73 0 -0.12 -129.74 -17.38 129.74 -30.61 0 -18.34 -126.82 -0.12 126.82 -43.73 0 0 -192.18 64.58 0c1.82,11.62 3.81,25.31 5.95,40.94l7.09 48.79 11.38 -89.73 65.03 0zm168.87 83.82l-50.05 0 0 -33.36c0,-9.72 -0.52,-15.76 -1.58,-18.18 -1.05,-2.39 -3.4,-3.61 -7,-3.61 -4.05,0 -6.64,1.46 -7.74,4.37 -1.09,2.96 -1.66,9.28 -1.66,19l0 89.16c0,9.35 0.57,15.43 1.66,18.3 1.1,2.84 3.57,4.25 7.37,4.25 3.69,0 6.12,-1.41 7.25,-4.29 1.14,-2.83 1.7,-9.56 1.7,-20.12l0 -24.18 50.05 0 0 7.49c0,19.93 -1.42,34.06 -4.21,42.36 -2.79,8.34 -9.03,15.63 -18.63,21.9 -9.63,6.28 -21.46,9.4 -35.55,9.4 -14.62,0 -26.68,-2.63 -36.2,-7.94 -9.47,-5.3 -15.79,-12.63 -18.87,-22.03 -3.07,-9.39 -4.61,-23.48 -4.61,-42.31l0 -56.12c0,-13.85 0.48,-24.22 1.41,-31.14 0.98,-6.92 3.77,-13.61 8.51,-20 4.69,-6.4 11.21,-11.46 19.56,-15.15 8.34,-3.68 17.93,-5.5 28.79,-5.5 14.69,0 26.84,2.83 36.44,8.54 9.55,5.67 15.83,12.75 18.87,21.26 2.99,8.5 4.49,21.7 4.49,39.64l0 18.26zm150.61 -83.82l0 38.39 -29.4 0 0 153.79 -50.04 0 0 -153.79 -29.64 0 0 -38.39 109.08 0zm43.55 0l50.33 0c13.61,0 24.06,1.06 31.39,3.2 7.28,2.15 12.79,5.23 16.48,9.23 3.68,4.05 6.15,8.95 7.49,14.66 1.29,5.75 1.94,14.62 1.94,26.65l0 16.72c0,12.23 -1.26,21.18 -3.81,26.76 -2.51,5.63 -7.16,9.97 -13.89,12.96 -6.76,3 -15.58,4.5 -26.48,4.5l-13.4 0 0 77.5 -50.05 0 0 -192.18zm50.05 32.8l0 48.96c1.42,0.08 2.63,0.12 3.64,0.12 4.58,0 7.74,-1.14 9.52,-3.4 1.74,-2.23 2.63,-6.93 2.63,-14.05l0 -15.84c0,-6.56 -1.01,-10.85 -3.08,-12.83 -2.02,-1.99 -6.27,-2.96 -12.71,-2.96zm217.99 79.85c0,19.32 -0.45,32.96 -1.38,40.98 -0.89,8.06 -3.72,15.39 -8.5,22.03 -4.78,6.64 -11.26,11.74 -19.4,15.3 -8.13,3.57 -17.61,5.35 -28.42,5.35 -10.29,0 -19.48,-1.7 -27.66,-5.06 -8.18,-3.36 -14.78,-8.38 -19.72,-15.11 -4.98,-6.72 -7.93,-14.05 -8.91,-21.94 -0.93,-7.94 -1.41,-21.79 -1.41,-41.55l0 -32.88c0,-19.31 0.44,-32.96 1.37,-40.98 0.89,-8.05 3.73,-15.38 8.51,-22.02 4.77,-6.64 11.25,-11.75 19.39,-15.31 8.14,-3.56 17.62,-5.34 28.43,-5.34 10.28,0 19.47,1.7 27.65,5.06 8.18,3.36 14.78,8.38 19.72,15.1 4.98,6.72 7.94,14.05 8.91,21.95 0.93,7.93 1.42,21.78 1.42,41.54l0 32.88zm-50.05 -63.13c0,-8.9 -0.48,-14.61 -1.46,-17.12 -0.97,-2.47 -2.95,-3.73 -5.95,-3.73 -2.55,0 -4.49,1.01 -5.87,3.04 -1.34,1.98 -2.02,7.93 -2.02,17.81l0 89.69c0,11.14 0.44,18.02 1.33,20.62 0.89,2.63 2.96,3.92 6.2,3.92 3.32,0 5.46,-1.5 6.39,-4.49 0.94,-3 1.38,-10.16 1.38,-21.46l0 -88.28zm212.24 142.66l-41.79 0 0 -87.42 -25.99 87.42 -43.49 0 0 -192.18 41.79 0 0 86.74 27.94 -86.74 41.54 0 0 192.18zm-42.03 -234.21l20.17 0c-0.49,10.81 -3.61,19.48 -9.44,26.08 -5.83,6.6 -13.89,9.88 -24.25,9.88 -10.45,0 -18.55,-3.32 -24.3,-9.96 -5.75,-6.6 -8.83,-15.27 -9.31,-26l20.16 0c0.97,10.85 5.43,16.28 13.45,16.28 8.05,0 12.59,-5.43 13.52,-16.28zm151.42 138.97l0 33.04 -62.68 0 0 -33.04 62.68 0zm148.38 62.44l0 32.8 -105.44 0 0.08 -27.46c31.26,-51.06 49.85,-82.64 55.76,-94.79 5.91,-12.14 8.87,-21.62 8.87,-28.38 0,-5.23 -0.93,-9.11 -2.71,-11.7 -1.79,-2.56 -4.5,-3.85 -8.14,-3.85 -3.65,0 -6.4,1.42 -8.18,4.25 -1.78,2.83 -2.67,8.46 -2.67,16.89l0 18.22 -43.01 0 0 -7.01c0,-10.73 0.57,-19.23 1.66,-25.43 1.1,-6.19 3.85,-12.31 8.18,-18.3 4.38,-5.99 10.04,-10.57 17.01,-13.65 6.96,-3.07 15.31,-4.61 25.02,-4.61 19.07,0 33.49,4.74 43.29,14.17 9.76,9.48 14.66,21.42 14.66,35.88 0,11.01 -2.76,22.63 -8.26,34.9 -5.51,12.27 -21.75,38.27 -48.67,78.07l52.55 0zm143.89 -159.38l0 125.61 13.61 0 0 32.8 -13.61 0 0 33.77 -47.86 0 0 -33.77 -57.09 0 0 -32.8 41.5 -125.61 63.45 0zm-47.86 125.61l0 -81.75 -21.3 81.75 21.3 0z"/>
  <path class="fil0" d="M732.84 604.49c-15.46,0 -27.97,-4.47 -37.54,-13.4 -9.56,-8.94 -14.34,-20.78 -14.34,-35.52 0,-14.84 4.83,-26.66 14.48,-35.46 9.65,-8.8 21.89,-13.2 36.73,-13.2 8.93,0 16.35,0.98 22.25,2.95l0 16.49 -0.67 0.26c-5.99,-2.14 -12.65,-3.21 -19.98,-3.21 -10,0 -18.34,2.86 -24.99,8.58 -6.66,5.72 -9.99,13.58 -9.99,23.59 0,10.18 3.37,18.14 10.12,23.86 6.75,5.72 15.17,8.58 25.27,8.58 7.86,0 14.92,-1.12 21.18,-3.36l0.67 0.27 0 16.49c-6.62,2.05 -14.35,3.08 -23.19,3.08zm77.61 -1.34l-16.89 0 0 -78.41 -32.31 0 0 -16.49 81.5 0 0 16.49 -32.3 0 0 78.41zm43.96 -94.9l30.56 0c10.82,0 19.53,2.37 26.14,7.1 6.62,4.74 9.92,12.16 9.92,22.25 0,10.46 -3.24,18.1 -9.72,22.93 -6.47,4.82 -15.3,7.23 -26.47,7.23l-13.4 0 0 35.39 -17.03 0 0 -94.9zm17.03 44.1l13.27 0c12.51,0 18.76,-4.83 18.76,-14.48 0,-9.47 -6.21,-14.21 -18.63,-14.21l-13.4 0 0 28.69zm108.3 52.14c-14.12,0 -25.87,-4.53 -35.25,-13.6 -9.38,-9.07 -14.08,-20.8 -14.08,-35.19 0,-14.39 4.7,-26.11 14.08,-35.19 9.38,-9.07 21.18,-13.6 35.39,-13.6 14.12,0 25.84,4.53 35.18,13.6 9.34,9.08 14.01,20.8 14.01,35.19 0,14.39 -4.67,26.12 -14.01,35.19 -9.34,9.07 -21.11,13.6 -35.32,13.6zm0.14 -16.35c9.83,0 17.51,-3.02 23.05,-9.05 5.54,-6.03 8.31,-13.92 8.31,-23.66 0,-9.29 -2.99,-16.98 -8.98,-23.05 -5.99,-6.08 -13.45,-9.12 -22.38,-9.12 -9.21,0 -16.78,3.06 -22.72,9.18 -5.95,6.13 -8.92,13.88 -8.92,23.26 0,9.47 2.97,17.25 8.92,23.32 5.94,6.08 13.51,9.12 22.72,9.12zm81.9 15.01l-15.95 0 0 -94.9 16.89 0 0 66.89 0.53 0 46.25 -66.89 15.95 0 0 94.9 -16.76 0 0 -66.75 -0.53 0 -46.38 66.75zm124.52 0l-16.89 0 0 -78.41 -32.3 0 0 -16.49 81.5 0 0 16.49 -32.31 0 0 78.41zm102.28 -94.9l0 15.55 -41.29 0 0 23.59 38.61 0 0 15.55 -38.61 0 0 24.66 41.29 0 0 15.55 -58.31 0 0 -94.9 58.31 0zm12.2 96.24c-0.99,0 -2.95,-0.13 -5.9,-0.4l0 -16.62 0.67 -0.27c1.34,0.27 2.59,0.4 3.75,0.4 6.79,0 10.81,-5.09 12.07,-15.28 0.8,-6.07 1.52,-16.13 2.14,-30.16 0.8,-15.64 1.21,-26.94 1.21,-33.91l64.07 0 0 94.9 -17.02 0 0 -78.41 -30.43 0c0,17.96 -1.21,35.65 -3.62,53.08 -2.5,17.78 -11.48,26.67 -26.94,26.67zm116.75 -61.79l18.9 0c10.81,0 19.14,2.59 25,7.77 5.85,5.19 8.78,12.65 8.78,22.39 0,9.65 -3.02,17.11 -9.05,22.38 -6.03,5.28 -14.5,7.91 -25.4,7.91l-35.26 0 0 -94.9 17.03 0 0 34.45zm0 45.04l16.89 0c5.54,0 9.94,-1.3 13.2,-3.89 3.26,-2.59 4.89,-6.26 4.89,-10.99 0,-9.56 -6.16,-14.34 -18.5,-14.34l-16.48 0 0 29.22zm114.34 16.75c-15.46,0 -27.97,-4.47 -37.54,-13.4 -9.56,-8.94 -14.34,-20.78 -14.34,-35.52 0,-14.84 4.83,-26.66 14.48,-35.46 9.65,-8.8 21.89,-13.2 36.73,-13.2 8.93,0 16.35,0.98 22.25,2.95l0 16.49 -0.67 0.26c-5.99,-2.14 -12.65,-3.21 -19.98,-3.21 -10,0 -18.34,2.86 -24.99,8.58 -6.66,5.72 -9.99,13.58 -9.99,23.59 0,10.18 3.37,18.14 10.12,23.86 6.75,5.72 15.17,8.58 25.27,8.58 7.86,0 14.92,-1.12 21.18,-3.36l0.67 0.27 0 16.49c-6.62,2.05 -14.35,3.08 -23.19,3.08zm77.61 -1.34l-16.89 0 0 -78.41 -32.31 0 0 -16.49 81.5 0 0 16.49 -32.3 0 0 78.41zm98.79 -50c5.18,1.17 9.36,3.78 12.53,7.85 3.17,4.06 4.76,8.95 4.76,14.67 0,8.85 -3.02,15.64 -9.05,20.38 -6.03,4.73 -14.63,7.1 -25.8,7.1l-37.27 0 0 -94.9 36.73 0c9.65,0 17.2,2.1 22.65,6.3 5.45,4.2 8.18,10.54 8.18,19.03 0,4.47 -1.21,8.52 -3.62,12.13 -2.41,3.62 -5.45,6.1 -9.11,7.44zm-18.9 -29.49l-19.44 0 0 23.6 19.57 0c9.47,0 14.21,-4.02 14.21,-12.07 0,-7.68 -4.78,-11.53 -14.34,-11.53zm-19.44 64.08l20.91 0c5.45,0 9.67,-1.12 12.67,-3.35 2.99,-2.24 4.49,-5.5 4.49,-9.79 0,-4.29 -1.39,-7.66 -4.16,-10.12 -2.77,-2.46 -6.88,-3.69 -12.33,-3.69l-21.58 0 0 26.95zm115.68 16.75c-14.12,0 -25.87,-4.53 -35.26,-13.6 -9.38,-9.07 -14.07,-20.8 -14.07,-35.19 0,-14.39 4.69,-26.11 14.07,-35.19 9.39,-9.07 21.18,-13.6 35.39,-13.6 14.12,0 25.85,4.53 35.19,13.6 9.34,9.08 14.01,20.8 14.01,35.19 0,14.39 -4.67,26.12 -14.01,35.19 -9.34,9.07 -21.11,13.6 -35.32,13.6zm0.13 -16.35c9.83,0 17.52,-3.02 23.06,-9.05 5.54,-6.03 8.31,-13.92 8.31,-23.66 0,-9.29 -3,-16.98 -8.98,-23.05 -5.99,-6.08 -13.45,-9.12 -22.39,-9.12 -9.2,0 -16.78,3.06 -22.72,9.18 -5.94,6.13 -8.91,13.88 -8.91,23.26 0,9.47 2.97,17.25 8.91,23.32 5.94,6.08 13.52,9.12 22.72,9.12zm180.56 -79.89l0 78.42 15.28 0 0 38.87 -17.02 0 0 -22.39 -70.78 0 0 22.39 -17.02 0 0 -38.87 3.48 0c5.19,0 8.94,-1.75 11.26,-5.23 2.32,-3.76 3.89,-7.91 4.69,-12.47 0.27,-1.34 0.63,-5 1.08,-10.99 0.53,-6.52 0.89,-12.2 1.07,-17.02 0.8,-14.84 1.2,-25.74 1.2,-32.71l66.76 0zm-53.22 61.12c-1.25,8.05 -3.39,13.81 -6.43,17.3l42.76 0 0 -62.47 -32.98 0c0,4.92 -0.38,12.67 -1.14,23.26 -0.75,10.59 -1.49,17.89 -2.21,21.91zm125.47 35.12c-14.12,0 -25.87,-4.53 -35.26,-13.6 -9.38,-9.07 -14.07,-20.8 -14.07,-35.19 0,-14.39 4.69,-26.11 14.07,-35.19 9.39,-9.07 21.18,-13.6 35.39,-13.6 14.12,0 25.85,4.53 35.19,13.6 9.34,9.08 14,20.8 14,35.19 0,14.39 -4.66,26.12 -14,35.19 -9.34,9.07 -21.11,13.6 -35.32,13.6zm0.13 -16.35c9.83,0 17.52,-3.02 23.06,-9.05 5.54,-6.03 8.31,-13.92 8.31,-23.66 0,-9.29 -3,-16.98 -8.98,-23.05 -5.99,-6.08 -13.45,-9.12 -22.39,-9.12 -9.2,0 -16.78,3.06 -22.72,9.18 -5.94,6.13 -8.91,13.88 -8.91,23.26 0,9.47 2.97,17.25 8.91,23.32 5.94,6.08 13.52,9.12 22.72,9.12zm82.84 15.01l-16.89 0 0 -94.9 17.96 0 28.15 33.91 0.67 0 28.15 -33.91 17.56 0 0 94.9 -16.75 0 0 -70.5 -0.54 0 -28.82 32.84 -0.67 0 -28.28 -32.84 -0.54 0 0 70.5zm141.82 1.34c-14.12,0 -25.87,-4.53 -35.26,-13.6 -9.38,-9.07 -14.07,-20.8 -14.07,-35.19 0,-14.39 4.69,-26.11 14.07,-35.19 9.39,-9.07 21.18,-13.6 35.39,-13.6 14.12,0 25.85,4.53 35.19,13.6 9.34,9.08 14,20.8 14,35.19 0,14.39 -4.66,26.12 -14,35.19 -9.34,9.07 -21.11,13.6 -35.32,13.6zm0.13 -16.35c9.83,0 17.52,-3.02 23.06,-9.05 5.54,-6.03 8.31,-13.92 8.31,-23.66 0,-9.29 -3,-16.98 -8.98,-23.05 -5.99,-6.08 -13.45,-9.12 -22.39,-9.12 -9.2,0 -16.78,3.06 -22.72,9.18 -5.94,6.13 -8.91,13.88 -8.91,23.26 0,9.47 2.97,17.25 8.91,23.32 5.94,6.08 13.52,9.12 22.72,9.12zm120.78 -34.99c5.18,1.17 9.36,3.78 12.53,7.85 3.17,4.06 4.76,8.95 4.76,14.67 0,8.85 -3.02,15.64 -9.05,20.38 -6.03,4.73 -14.63,7.1 -25.8,7.1l-37.27 0 0 -94.9 36.73 0c9.65,0 17.2,2.1 22.65,6.3 5.45,4.2 8.18,10.54 8.18,19.03 0,4.47 -1.21,8.52 -3.62,12.13 -2.41,3.62 -5.45,6.1 -9.11,7.44zm-18.91 -29.49l-19.43 0 0 23.6 19.57 0c9.47,0 14.21,-4.02 14.21,-12.07 0,-7.68 -4.78,-11.53 -14.35,-11.53zm-19.43 64.08l20.91 0c5.45,0 9.67,-1.12 12.67,-3.35 2.99,-2.24 4.49,-5.5 4.49,-9.79 0,-4.29 -1.39,-7.66 -4.16,-10.12 -2.77,-2.46 -6.88,-3.69 -12.33,-3.69l-21.58 0 0 26.95z"/>
  <rect class="fil1" x="422.94" y="513.42" width="84.82" height="83.25"/>
  <rect class="fil1" x="539.97" y="513.03" width="84.82" height="83.25"/>
  <rect class="fil1" x="422.33" y="396.83" width="84.82" height="83.25"/>
  <rect class="fil1" x="540.76" y="396.83" width="84.82" height="83.25"/>
  <polygon class="fil2" points="0,618.59 95.19,510.2 164.62,588.74 140.12,618.59 "/>
  <line class="fil3" x1="84.51" y1="324.22" x2="135.41" y2= "243.16" />
  <polygon class="fil2" points="135.41,243.16 211.43,243.79 212.06,346.84 128.81,434.17 128.26,289.97 84.51,324.22 "/>
  <polygon class="fil2" points="279.46,453.49 214.82,378.01 118.31,484.17 186.62,561.09 "/>
  <polygon class="fil2" points="234.31,349.8 302.64,429.13 399.25,321.53 327.77,241.42 "/>
  <line class="fil3" x1="353.1" y1="215.3" x2="445.19" y2= "108.29" />
  <polygon class="fil2" points="445.19,108.29 515.1,186.63 422.42,294.24 353.1,215.3 "/>
  <g>
   <path class="fil2" d="M538.57 161.01l-69.12 -80.11 69.12 80.11zm0 0l69.51 -81.68 -68.73 -79.33 -69.9 80.9 69.12 80.11z"/>
  </g>
  <polygon class="fil2" points="726.29,216.38 631.64,107.6 562.14,188.5 654.81,296.49 "/>
 </g>
</svg>
