<?xml version="1.0" encoding="UTF-8"?>
<!DOCTYPE svg PUBLIC "-//W3C//DTD SVG 1.1//EN" "http://www.w3.org/Graphics/SVG/1.1/DTD/svg11.dtd">
<!-- Creator: CorelDRAW X7 -->
<svg xmlns="http://www.w3.org/2000/svg" xml:space="preserve" width="297mm" height="110mm" version="1.1" style="shape-rendering:geometricPrecision; text-rendering:geometricPrecision; image-rendering:optimizeQuality; fill-rule:evenodd; clip-rule:evenodd"
viewBox="0 0 29700 11000"
 xmlns:xlink="http://www.w3.org/1999/xlink">
 <defs>
  <style type="text/css">
   <![CDATA[
    .fil1 {fill:#373737}
    .fil0 {fill:#F9AE15}
    .fil2 {fill:#373737;fill-rule:nonzero}
    .fil3 {fill:#F9AE15;fill-rule:nonzero}
   ]]>
  </style>
 </defs>
 <g id="Слой_x0020_1">
  <metadata id="CorelCorpID_0Corel-Layer"/>
  <path class="fil0" d="M7237 3339c59,64 117,130 172,197l532 -5 -105 299 -170 53 1 1 -940 339c-499,-542 -1147,-960 -1906,-1182 -1685,-494 -3433,119 -4464,1413 290,-632 724,-1164 1250,-1570l-9 6c-12,-9 -24,-16 -38,-23l-673 -21 99 -250 1057 -280c37,-110 -7,-191 -66,-252l-634 -229 172 -207 1092 61c69,-93 52,-183 15,-261l-533 -413 227 -143 1020 395c95,-67 107,-158 95,-243l-379 -558 261 -66 847 690c111,-34 151,-117 166,-201l-188 -647 268 17 593 919c116,1 179,-66 219,-141l22 -673 249 98 280 1058c110,37 191,-7 253,-66l228 -634 207 171 -61 1092c93,69 184,52 261,15l413 -532 143 227 -394 1020c66,94 158,106 242,95l558 -379 66 260 -448 550z"/>
  <path class="fil1" d="M2879 10191c-988,-290 -1788,-910 -2316,-1705l940 -339c499,542 1147,960 1906,1182 1289,377 2614,108 3627,-618 79,51 161,99 246,141 -1038,1243 -2750,1823 -4403,1339z"/>
  <path class="fil2" d="M2280 8810m1387 0l1002 0 0 -3632 1387 0 0 -924 -3776 0 0 924 1387 0 0 3632z"/>
  <path class="fil2" d="M6427 8810m2415 78c1406,0 2428,-1061 2428,-2356 0,-1309 -1009,-2357 -2415,-2357 -1406,0 -2428,1061 -2428,2357 0,1308 1009,2356 2415,2356zm13 -924c-808,0 -1380,-651 -1380,-1432 0,-794 559,-1432 1367,-1432 807,0 1380,651 1380,1432 0,794 -560,1432 -1367,1432zm3105 846m2415 78c1406,0 2428,-1061 2428,-2356 0,-1309 -1009,-2357 -2415,-2357 -1406,0 -2428,1061 -2428,2357 0,1308 1009,2356 2415,2356zm13 -924c-807,0 -1380,-651 -1380,-1432 0,-794 560,-1432 1367,-1432 807,0 1380,651 1380,1432 0,794 -560,1432 -1367,1432zm3307 846m0 0l3274 0 0 -911 -2272 0 0 -3645 -1002 0 0 4556zm3717 0m1933 65c983,0 1673,-507 1673,-1412 0,-807 -521,-1139 -1445,-1380 -788,-202 -983,-300 -983,-599 0,-235 202,-410 586,-410 384,0 781,169 1185,449l520 -755c-462,-371 -1028,-580 -1692,-580 -931,0 -1595,547 -1595,1374 0,918 592,1172 1510,1406 762,195 918,326 918,579 0,280 -247,443 -657,443 -521,0 -951,-215 -1361,-553l-592 709c547,489 1243,729 1933,729z"/>
  <path class="fil3" d="M27453 8810m1002 0l990 0 0 -4589 -684 0 -1308 391 208 820 794 -196 0 3574z"/>
  <path class="fil2" d="M7822 10291m0 -619l0 619 64 0 0 -563 392 0 0 563 65 0 0 -619 -521 0z"/>
  <path class="fil2" d="M9246 10291m232 -619l-232 0 0 619 66 0 0 -196 166 0c157,0 253,-79 253,-211 0,-133 -96,-212 -253,-212zm-2 366l-164 0 0 -310 164 0c124,0 190,57 190,156 0,97 -66,154 -190,154z"/>
  <path class="fil2" d="M10515 10291m326 5c185,0 324,-134 324,-315 0,-181 -139,-315 -324,-315 -188,0 -326,135 -326,315 0,181 138,315 326,315zm0 -58c-150,0 -261,-109 -261,-257 0,-147 111,-256 261,-256 148,0 259,109 259,256 0,148 -111,257 -259,257z"/>
  <path class="fil2" d="M11905 10291m570 -57l0 -562 -418 0 -7 200c-6,198 -25,357 -113,362l-31 0 -1 196 61 0 1 -139 540 0 0 139 61 0 0 -196 -93 0zm-366 -355l5 -151 296 0 0 506 -381 0c59,-45 74,-194 80,-355z"/>
  <path class="fil2" d="M13307 10291m561 0l69 0 -283 -619 -64 0 -283 619 68 0 74 -166 345 0 74 166zm-395 -219l149 -332 148 332 -297 0z"/>
  <path class="fil2" d="M14639 10291m776 0l76 0 -212 -320 196 -299 -71 0 -178 277 -128 0 0 -277 -64 0 0 277 -130 0 -178 -277 -71 0 197 299 -213 320 77 0 189 -284 129 0 0 284 64 0 0 -284 128 0 189 284z"/>
  <path class="fil2" d="M16290 10291m0 0l60 0 396 -512 0 512 64 0 0 -619 -59 0 -396 513 0 -513 -65 0 0 619z"/>
  <path class="fil2" d="M18336 10291m342 -324c65,-20 104,-70 104,-136 0,-106 -104,-168 -228,-168 -65,0 -135,17 -199,55l22 54c56,-36 119,-52 175,-52 90,0 165,43 165,118 0,66 -52,105 -139,105l-129 0 0 53 132 0c102,0 162,40 162,113 0,84 -86,131 -185,131 -68,0 -143,-23 -198,-70l-24 46c65,55 150,80 229,80 129,0 244,-66 244,-179 0,-75 -50,-130 -131,-150z"/>
  <path class="fil2" d="M19575 10291m562 0l69 0 -283 -619 -65 0 -283 619 68 0 75 -166 345 0 74 166zm-395 -219l148 -332 149 332 -297 0z"/>
  <path class="fil2" d="M21019 10291m0 -619l0 619 65 0 0 -563 392 0 0 563 64 0 0 -619 -521 0z"/>
  <path class="fil2" d="M22374 10291m425 -619l0 304c-63,29 -129,44 -189,44 -108,0 -171,-55 -171,-151l0 -197 -65 0 0 204c0,127 85,202 230,202 60,0 127,-15 195,-44l0 257 64 0 0 -619 -64 0z"/>
  <path class="fil2" d="M23677 10291m561 0l69 0 -283 -619 -65 0 -282 619 68 0 74 -166 345 0 74 166zm-395 -219l148 -332 149 332 -297 0z"/>
  <path class="fil2" d="M25059 10291m323 5c91,0 173,-31 228,-91l-42 -42c-50,53 -112,75 -183,75 -150,0 -262,-110 -262,-257 0,-147 112,-256 262,-256 71,0 133,22 183,73l42 -41c-55,-61 -137,-91 -227,-91 -186,0 -324,134 -324,315 0,181 138,315 323,315z"/>
  <path class="fil2" d="M26337 10291m500 -619l-500 0 0 56 218 0 0 563 64 0 0 -563 218 0 0 -56z"/>
  <path class="fil2" d="M27647 10291m65 -57l0 -230 320 0 0 -56 -320 0 0 -220 359 0 0 -56 -424 0 0 619 438 0 0 -57 -373 0z"/>
  <path class="fil2" d="M28925 10291m258 -664c87,0 142,-43 144,-114l-49 0c-1,47 -40,76 -95,76 -57,0 -95,-29 -96,-76l-48 0c1,71 55,114 144,114zm-258 664l59 0 396 -512 0 512 65 0 0 -619 -60 0 -396 513 0 -513 -64 0 0 619z"/>
 </g>
</svg>
